<?xml version="1.0" encoding="UTF-8"?>
<svg version="1.1" xmlns="http://www.w3.org/2000/svg" width="779" height="784">
<path d="M0 0 C257.07 0 514.14 0 779 0 C779 258.72 779 517.44 779 784 C521.93 784 264.86 784 0 784 C0 525.28 0 266.56 0 0 Z " fill="#AA9E85" transform="translate(0,0)"/>
<path d="M0 0 C257.07 0 514.14 0 779 0 C779 258.72 779 517.44 779 784 C521.93 784 264.86 784 0 784 C0 525.28 0 266.56 0 0 Z M373.46728516 7.03808594 C341.83235204 7.67272738 310.24344742 13.96099497 280 23 C279.07316406 23.27650391 278.14632813 23.55300781 277.19140625 23.83789062 C236.45111764 36.21645568 196.13017936 56.12909514 162.75292969 82.61181641 C160.98545355 84.01151966 159.20229513 85.3886637 157.4140625 86.76171875 C137.56862174 102.06412878 118.27575784 118.90354309 102 138 C101.18789062 138.93457031 100.37578125 139.86914062 99.5390625 140.83203125 C66.76987927 178.75390253 41.84213733 223.52278721 26 271 C25.58492187 272.15113281 25.16984375 273.30226563 24.7421875 274.48828125 C4.5466795 331.58187147 1.77703591 395.68285989 12 455 C12.28762207 456.71461426 12.28762207 456.71461426 12.58105469 458.46386719 C14.07612218 467.25726049 15.74936784 475.9905163 18.2890625 484.55078125 C18.84184174 486.4551361 19.32081623 488.38097544 19.76953125 490.3125 C21.48240454 497.21300126 23.81879395 503.94525385 26.0625 510.6875 C26.30709961 511.42264832 26.55169922 512.15779663 26.80371094 512.91522217 C30.92501567 525.24329601 35.52704135 537.2020737 41 549 C41.6177832 550.3624585 41.6177832 550.3624585 42.24804688 551.75244141 C57.13995896 584.55383724 77.01214583 615.10926783 101 642 C101.825 642.93585937 102.65 643.87171875 103.5 644.8359375 C107.37808983 649.19878856 111.35377189 653.4042937 115.5234375 657.48828125 C117 659 117 659 118.9375 661.5 C121.23420959 664.28389041 123.74255368 666.46124943 126.484375 668.796875 C128.99869073 670.99885337 131.42347626 673.27348898 133.84887695 675.57202148 C141.22579186 682.54130481 148.89631919 688.89873452 157 695 C157.72880371 695.55333008 158.45760742 696.10666016 159.20849609 696.67675781 C169.81093284 704.70897407 180.570157 712.19872611 192 719 C192.69963867 719.42313477 193.39927734 719.84626953 194.12011719 720.28222656 C216.71455266 733.92777074 240.24510906 744.89688042 265 754 C266.1451709 754.42466553 266.1451709 754.42466553 267.31347656 754.85791016 C293.0184602 764.27968246 320.85107597 769.85229866 348 773 C348.88993652 773.10441406 349.77987305 773.20882812 350.69677734 773.31640625 C447.98400421 784.22389736 546.94845532 754.10699518 629 692 C634.1344888 687.81652263 639.08832695 683.44121168 644 679 C644.79833252 678.28626221 644.79833252 678.28626221 645.61279297 677.55810547 C658.41863251 666.09773493 671.34874102 654.18713869 681.94140625 640.62109375 C683.88561599 638.14563884 685.91039296 635.75789555 687.96972656 633.37792969 C713.4769035 603.82930984 733.9694337 568.34251112 748 532 C748.29422852 531.24912109 748.58845703 530.49824219 748.89160156 529.72460938 C757.23636497 508.31334484 763.0873951 486.42421554 768 464 C768.15780945 463.33412872 768.3156189 462.66825745 768.47821045 461.98220825 C769.77422729 456.42208157 770.63002513 450.89520166 771.2890625 445.2265625 C771.39748474 444.31325668 771.50590698 443.39995087 771.61761475 442.45896912 C771.96197711 439.51521981 772.29554457 436.57045352 772.625 433.625 C772.73805481 432.61823212 772.85110962 431.61146423 772.96759033 430.57418823 C774.73282048 414.62095651 775.64590179 399.05684363 775 383 C774.95249749 381.13286059 774.90689596 379.26567177 774.86328125 377.3984375 C773.33183511 323.92623578 759.86820615 270.82048219 736 223 C735.49291504 221.98019043 734.98583008 220.96038086 734.46337891 219.90966797 C728.2643111 207.53318676 721.66590547 195.52875644 714 184 C713.57396484 183.35546875 713.14792969 182.7109375 712.70898438 182.046875 C697.10868928 158.56554195 679.21842223 137.20142513 659.38314819 117.20791626 C657.97970612 115.79256429 656.58024342 114.3732699 655.1809082 112.95385742 C649.09819253 106.8634871 642.73062402 101.35820924 636 96 C634.70626832 94.92722477 633.41551485 93.8508391 632.12890625 92.76953125 C585.55083146 53.98665389 528.92500926 28.30148876 470 15 C468.80020508 14.72760498 468.80020508 14.72760498 467.57617188 14.44970703 C436.77342483 7.62592285 404.90478186 6.56534163 373.46728516 7.03808594 Z " fill="#0E0E0B" transform="translate(0,0)"/>
<path d="M0 0 C23.34302649 8.65878994 45.00058755 27.27257713 61 46 C61.71115967 45.28884033 62.42231934 44.57768066 63.1550293 43.8449707 C76.07751465 30.92248535 76.07751465 30.92248535 89 18 C92.13405668 19.38596867 94.21834182 20.99071156 96.6015625 23.44140625 C97.58382812 24.44010742 97.58382812 24.44010742 98.5859375 25.45898438 C99.25882813 26.15314453 99.93171875 26.84730469 100.625 27.5625 C101.96911869 28.94098537 103.31537153 30.31739401 104.6640625 31.69140625 C105.25654785 32.30185791 105.8490332 32.91230957 106.45947266 33.54125977 C107.95434048 35.09810782 107.95434048 35.09810782 110 36 C108.36221955 40.19625909 105.26676818 42.98676785 102.1171875 46.078125 C101.54292023 46.64956238 100.96865295 47.22099976 100.37698364 47.80975342 C98.5476419 49.62792945 96.71145807 51.43901492 94.875 53.25 C93.63105226 54.48391329 92.3875573 55.71828322 91.14453125 56.953125 C88.10157633 59.97406743 85.05246746 62.98867092 82 66 C83.3089572 69.12197478 83.3089572 69.12197478 86 71 C86.99966797 70.18208984 86.99966797 70.18208984 88.01953125 69.34765625 C89.95560956 67.76359218 91.89461758 66.1831047 93.8359375 64.60546875 C95.9344568 62.89126753 97.99716179 61.14447144 100.0390625 59.36328125 C100.99554688 58.54214844 101.95203125 57.72101563 102.9375 56.875 C103.81277344 56.10929687 104.68804687 55.34359375 105.58984375 54.5546875 C108 53 108 53 109.96875 53.21411133 C112.3352952 54.12972539 113.29521502 55.07952088 114.91015625 57.01953125 C115.68262695 57.93508789 115.68262695 57.93508789 116.47070312 58.86914062 C117.25864258 59.83110352 117.25864258 59.83110352 118.0625 60.8125 C118.59166016 61.44220703 119.12082031 62.07191406 119.66601562 62.72070312 C122.19972487 65.75034542 124.67472095 68.80575853 127 72 C125.47703455 75.86398092 123.17381929 77.71920742 119.9375 80.25 C114.79918899 84.33760098 109.86451993 88.59190416 105 93 C105.50603992 95.16874252 105.99983813 96.99967627 107 99 C112.00333301 97.20367152 116.54736306 94.62459879 121.1875 92.0625 C122.06011475 91.58393555 122.93272949 91.10537109 123.83178711 90.61230469 C130.8256908 86.73976716 137.6434243 82.61666964 144.3503418 78.26586914 C145.05070557 77.82235107 145.75106934 77.37883301 146.47265625 76.921875 C147.08375244 76.52581055 147.69484863 76.12974609 148.32446289 75.72167969 C150 75 150 75 153 76 C154.44213867 77.99365234 154.44213867 77.99365234 155.91796875 80.5859375 C156.44970703 81.51664062 156.98144531 82.44734375 157.52929688 83.40625 C158.35010742 84.87578125 158.35010742 84.87578125 159.1875 86.375 C159.74630859 87.34695313 160.30511719 88.31890625 160.88085938 89.3203125 C165 96.60299336 165 96.60299336 165 100 C164.0884314 100.51216064 164.0884314 100.51216064 163.15844727 101.03466797 C150.36234793 108.22998803 137.6182673 115.4967887 125 123 C125.33 124.98 125.66 126.96 126 129 C126.72590332 128.67725098 127.45180664 128.35450195 128.19970703 128.02197266 C131.50688168 126.55346672 134.8159154 125.08919673 138.125 123.625 C139.26710938 123.11710937 140.40921875 122.60921875 141.5859375 122.0859375 C142.69453125 121.59609375 143.803125 121.10625 144.9453125 120.6015625 C145.96125488 120.15119629 146.97719727 119.70083008 148.02392578 119.23681641 C150.97938497 118.00856733 153.95218525 116.9735523 157 116 C158.46256659 118.7269181 159.91928541 121.4569188 161.375 124.1875 C161.7875 124.95642578 162.2 125.72535156 162.625 126.51757812 C168.06346163 136.73662296 168.06346163 136.73662296 167.90209961 139.94897461 C166.51100019 143.11179632 164.31830376 143.63630944 161.21484375 145.015625 C160.04501953 145.54414063 158.87519531 146.07265625 157.66992188 146.6171875 C156.42592031 147.1617761 155.18177779 147.70604282 153.9375 148.25 C152.68885065 148.80855093 151.44079514 149.36843145 150.19335938 149.9296875 C147.13450773 151.29967511 144.07020604 152.65569807 141 154 C141.59651306 157.02266703 142.22669667 160.01725858 143 163 C143.99580078 162.566875 143.99580078 162.566875 145.01171875 162.125 C148.55029169 160.79283136 152.14342478 159.88361548 155.8125 159 C156.48603516 158.835 157.15957031 158.67 157.85351562 158.5 C159.2137467 158.16677593 160.57459073 157.83604402 161.93603516 157.5078125 C163.34514064 157.16111988 164.75102513 156.80113413 166.15380859 156.4296875 C169.59008983 155.52544486 172.41867 155 176 155 C175.54177532 158.46941546 175.10868317 161.67395049 174 165 C171.56665039 165.95141602 171.56665039 165.95141602 168.34765625 166.75390625 C167.17783203 167.05103516 166.00800781 167.34816406 164.80273438 167.65429688 C163.56845703 167.95400391 162.33417969 168.25371094 161.0625 168.5625 C159.86302734 168.86607422 158.66355469 169.16964844 157.42773438 169.48242188 C150.65244849 171.17901556 143.865584 172.71598234 137 174 C136.52949219 172.91460937 136.05898438 171.82921875 135.57421875 170.7109375 C134.94539781 169.26558788 134.31648677 167.82027746 133.6875 166.375 C133.37876953 165.66214844 133.07003906 164.94929687 132.75195312 164.21484375 C131.33137037 160.95498016 129.89273194 157.80042065 128.20703125 154.6640625 C127 152 127 152 128 149 C129.93017578 147.77319336 129.93017578 147.77319336 132.4453125 146.58984375 C133.35796875 146.15736328 134.270625 145.72488281 135.2109375 145.27929688 C136.17257812 144.83650391 137.13421875 144.39371094 138.125 143.9375 C139.0634375 143.49083984 140.001875 143.04417969 140.96875 142.58398438 C145.91805533 140.26529722 150.68922757 138.30194836 156 137 C155.01 134.03 154.02 131.06 153 128 C152.17274414 128.39904541 151.34548828 128.79809082 150.49316406 129.20922852 C147.41874755 130.68535422 144.33967727 132.1507331 141.25683594 133.60913086 C139.92408749 134.24226744 138.5933291 134.879611 137.26464844 135.52124023 C135.3533997 136.44329633 133.43548319 137.34994031 131.515625 138.25390625 C130.36352539 138.80377197 129.21142578 139.3536377 128.02441406 139.92016602 C125 141 125 141 122.75610352 140.91723633 C120.40385557 139.6886258 119.66869796 138.3839542 118.38671875 136.0703125 C117.94392578 135.27496094 117.50113281 134.47960937 117.04492188 133.66015625 C116.59697266 132.82355469 116.14902344 131.98695313 115.6875 131.125 C115.22021484 130.29613281 114.75292969 129.46726562 114.27148438 128.61328125 C111.75143044 124.00496992 111.75143044 124.00496992 111 122 C112.25838179 118.22485464 113.38851502 117.90248455 116.78515625 115.9609375 C117.78417969 115.38424316 118.78320312 114.80754883 119.8125 114.21337891 C120.885 113.60671387 121.9575 113.00004883 123.0625 112.375 C124.14402344 111.75415527 125.22554687 111.13331055 126.33984375 110.49365234 C129.55418605 108.6521816 132.77565651 106.82389161 136 105 C136.89187012 104.49404297 137.78374023 103.98808594 138.70263672 103.46679688 C143.12514116 100.95980014 147.5567031 98.46995034 152 96 C151.01 93.69 150.02 91.38 149 89 C144.67116471 90.31006341 140.98165828 91.98930203 137.078125 94.265625 C135.96953125 94.90886719 134.8609375 95.55210937 133.71875 96.21484375 C132.56245638 96.89315482 131.40620658 97.57154058 130.25 98.25 C129.12078125 98.90613281 127.9915625 99.56226563 126.828125 100.23828125 C120.83480863 103.72744575 114.88436246 107.26602596 109.01464844 110.95996094 C107 112 107 112 104 112 C102.46606445 110.34765625 102.46606445 110.34765625 100.86328125 108.0625 C100.28642578 107.25039063 99.70957031 106.43828125 99.11523438 105.6015625 C98.22288086 104.31378906 98.22288086 104.31378906 97.3125 103 C96.70599609 102.14148438 96.09949219 101.28296875 95.47460938 100.3984375 C93.97408277 98.27170688 92.48312498 96.13888554 91 94 C92.30146113 91.07014255 93.59204774 89.21381267 96.046875 87.16015625 C96.645 86.65419922 97.243125 86.14824219 97.859375 85.62695312 C98.48328125 85.11068359 99.1071875 84.59441406 99.75 84.0625 C100.3584375 83.55009766 100.966875 83.03769531 101.59375 82.50976562 C103.39004668 80.99941788 105.1939111 79.49861667 107 78 C108.1512037 77.04055897 109.30225792 76.08093853 110.453125 75.12109375 C111.29359375 74.42113281 112.1340625 73.72117187 113 73 C112.690625 72.401875 112.38125 71.80375 112.0625 71.1875 C111 69 111 69 110 66 C104.67359785 68.83029052 100.31210708 72.06339447 95.8125 76.0625 C85.63398295 85 85.63398295 85 83 85 C81.50122497 83.34516392 80.07511527 81.62409488 78.6875 79.875 C76.15508843 76.68800708 73.62607473 73.56155893 70.875 70.5625 C69 68 69 68 69.22654724 66.01739502 C70.52269768 62.63664886 73.23579285 60.40119406 75.78515625 57.921875 C76.36083847 57.35043762 76.93652069 56.77900024 77.52964783 56.19024658 C79.36700319 54.36966198 81.21452132 52.55979432 83.0625 50.75 C84.31123138 49.51631747 85.55928669 48.28195022 86.80664062 47.046875 C89.8633102 44.02325345 92.92913526 41.00920079 96 38 C94.35 36.02 92.7 34.04 91 32 C86.89891114 33.62156024 84.16851833 36.5767703 81.140625 39.6640625 C80.316763 40.49216934 80.316763 40.49216934 79.47625732 41.33700562 C77.72940707 43.09501815 75.98965399 44.8598689 74.25 46.625 C73.06426409 47.8207708 71.8780712 49.01608865 70.69140625 50.2109375 C67.78894915 53.13540253 64.8928359 56.06601874 62 59 C58.951636 57.65389402 57.02780539 56.21127862 54.8203125 53.7265625 C54.22839111 53.07236328 53.63646973 52.41816406 53.02661133 51.74414062 C52.39907959 51.04482422 51.77154785 50.34550781 51.125 49.625 C40.85485034 38.44722068 29.8892215 29.02625515 17 21 C18.85678773 28.01922029 20.89398185 34.95197501 23.1328125 41.859375 C24 45 24 45 25 52 C20.05 55.3 15.1 58.6 10 62 C6.40898025 60.20449013 4.79883415 58.99556278 2.125 56.1875 C-1.06849566 52.84531932 -4.42331654 49.91942966 -8 47 C-7.84329834 47.60996826 -7.68659668 48.21993652 -7.52514648 48.84838867 C-6.81828696 51.62543102 -6.12776758 54.40628926 -5.4375 57.1875 C-5.0672168 58.62706055 -5.0672168 58.62706055 -4.68945312 60.09570312 C-4.46064453 61.02705078 -4.23183594 61.95839844 -3.99609375 62.91796875 C-3.78138428 63.77156982 -3.5666748 64.6251709 -3.34545898 65.50463867 C-2.95029495 68.35903559 -3.08395883 70.26612729 -4 73 C-5.53686523 74.4152832 -5.53686523 74.4152832 -7.55859375 75.55078125 C-8.32421631 75.99389648 -9.08983887 76.43701172 -9.87866211 76.89355469 C-10.72307861 77.36180664 -11.56749512 77.83005859 -12.4375 78.3125 C-14.26159741 79.36383946 -16.08445097 80.41733908 -17.90625 81.47265625 C-18.88722656 82.0361377 -19.86820312 82.59961914 -20.87890625 83.18017578 C-26.46060522 86.43471146 -31.94393748 89.84971611 -37.4375 93.25 C-39.54023914 94.54707838 -41.64310108 95.84395772 -43.74609375 97.140625 C-47.76346778 99.61923533 -47.76346778 99.61923533 -51.77960205 102.09985352 C-53.57266113 103.20793922 -55.36636531 104.31497455 -57.16015625 105.421875 C-58.76515991 106.4133252 -58.76515991 106.4133252 -60.40258789 107.42480469 C-63 109 -63 109 -65 110 C-65.66764406 125.23421771 -65.66764406 125.23421771 -62.65625 140.0390625 C-62 142 -62 142 -62 145 C-60.94941406 144.32710937 -59.89882813 143.65421875 -58.81640625 142.9609375 C-55.94968326 141.18919805 -53.05972126 139.48738615 -50.09375 137.88671875 C-49.41763672 137.52022217 -48.74152344 137.15372559 -48.04492188 136.77612305 C-43.90023027 135.20306018 -40.92199765 136.39081844 -37 138 C-23.26429194 141.90595686 -7.50655883 145.53911622 6 139 C6.62003906 138.75636719 7.24007812 138.51273438 7.87890625 138.26171875 C13.64123453 135.63569009 16.48687034 130.63314513 19 125 C19.3835152 123.6141395 19.74204714 122.22118785 20.07885742 120.82324219 C20.38283447 119.56157227 20.68681152 118.29990234 21 117 C13.74822887 116.96814594 6.49751093 116.97524695 -0.75416374 117.02846622 C-4.12392034 117.05204956 -7.49188454 117.05974234 -10.86181641 117.04467773 C-27.14681959 116.9810881 -40.28209716 117.825753 -55 125 C-55.66 125 -56.32 125 -57 125 C-57.86510496 121.39169899 -57.99658812 118.5938606 -57 115 C-54.56030273 112.99633789 -54.56030273 112.99633789 -51.30859375 111.16015625 C-50.72603821 110.82351456 -50.14348267 110.48687286 -49.54327393 110.14002991 C-48.31555835 109.43209355 -47.0833423 108.73191151 -45.84701538 108.03912354 C-42.95947298 106.41460362 -40.11677199 104.71471061 -37.265625 103.02734375 C-35.52858584 102.01368173 -33.79153313 101.00004172 -32.05352783 99.98803711 C-17.18732895 91.32862342 -2.42618852 82.49997005 12.30322266 73.60986328 C15.40686119 71.73666561 18.51229856 69.86717738 21.62890625 68.015625 C24.04912149 66.56854381 26.44739746 65.10067653 28.83984375 63.609375 C30.10119671 62.84314751 31.36290355 62.07750222 32.625 61.3125 C34.28402344 60.28576172 34.28402344 60.28576172 35.9765625 59.23828125 C39 58 39 58 41.29321289 58.54956055 C44.91809248 60.49196243 47.46339687 63.05306943 50.33203125 65.96875 C51.22519295 66.86116394 51.22519295 66.86116394 52.13639832 67.77160645 C53.39475247 69.03229697 54.64942476 70.29667187 55.90063477 71.56445312 C57.78713267 73.47431846 59.68634838 75.37075137 61.58789062 77.265625 C68.16767286 83.86039769 74.42869516 90.51042381 80 98 C80.45576416 98.6069873 80.91152832 99.21397461 81.38110352 99.83935547 C87.90384014 108.66431022 94.0488759 117.78230533 100 127 C100.37479492 127.57766113 100.74958984 128.15532227 101.13574219 128.75048828 C113.1589575 147.46446904 121.74294084 167.69452723 128 189 C128.21640137 189.73234863 128.43280273 190.46469727 128.65576172 191.21923828 C129.91586957 195.80515044 130 199.04202877 130 204 C135.61 204 141.22 204 147 204 C146.566875 202.73542969 146.13375 201.47085938 145.6875 200.16796875 C145.12476246 198.507893 144.56227547 196.84773231 144 195.1875 C143.71382812 194.35412109 143.42765625 193.52074219 143.1328125 192.66210938 C142.86210937 191.85966797 142.59140625 191.05722656 142.3125 190.23046875 C141.93544922 189.12288208 141.93544922 189.12288208 141.55078125 187.99291992 C141 186 141 186 141 183 C164.89101498 175.29700499 164.89101498 175.29700499 170 177 C169.22138348 180.47102877 168.22852052 183.20070028 166 186 C161.75606956 187.69967054 157.52358278 188.43128367 153 189 C153.22816406 189.73605469 153.45632813 190.47210938 153.69140625 191.23046875 C153.97886719 192.20628906 154.26632812 193.18210937 154.5625 194.1875 C154.85253906 195.15042969 155.14257812 196.11335937 155.44140625 197.10546875 C156.33742914 201.74849647 155.34991009 205.33519285 152.75 209.25 C149.20149878 213.12438399 146.06823783 213.5055606 141.06762695 213.75561523 C138.28075039 213.81449113 135.49436224 213.85263681 132.70703125 213.8828125 C106.19517752 214.17783566 78.78081155 221.75598377 53.54541016 229.24658203 C50.26787862 230.21670119 46.97850221 231.1391804 43.6875 232.0625 C41.45790282 232.7068455 39.22876362 233.35277712 37 234 C36.31856934 234.19352051 35.63713867 234.38704102 34.93505859 234.58642578 C26.42378295 237.00839393 18.01008793 239.58558396 9.703125 242.64453125 C8.76311142 242.98898285 8.76311142 242.98898285 7.80410767 243.34039307 C4.68401526 244.48614472 1.57281033 245.64874628 -1.53173828 246.83642578 C-2.67368652 247.26036621 -3.81563477 247.68430664 -4.9921875 248.12109375 C-6.00651855 248.5070874 -7.02084961 248.89308105 -8.06591797 249.29077148 C-13.80197442 250.67729536 -17.92310376 248.77578199 -22.875 245.9375 C-23.84179688 245.38964844 -24.80859375 244.84179688 -25.8046875 244.27734375 C-26.52914062 243.85582031 -27.25359375 243.43429687 -28 243 C-28.54008742 238.87933304 -28.7489579 235.10344537 -28 231 C-25.4988836 228.13640297 -22.33722342 226.74577294 -19 225 C0.10704093 212.20799802 11.05591774 196.16982034 17 174 C17.17039795 173.39381836 17.3407959 172.78763672 17.51635742 172.16308594 C18.03972969 169.82230941 18.20891481 167.62989859 18.31640625 165.234375 C18.35830078 164.34492188 18.40019531 163.45546875 18.44335938 162.5390625 C18.48267578 161.61867188 18.52199219 160.69828125 18.5625 159.75 C18.62727539 158.34621094 18.62727539 158.34621094 18.69335938 156.9140625 C18.79917939 154.60953778 18.90006917 152.30478761 19 150 C21.97 149.67 24.94 149.34 28 149 C28 151.64 28 154.28 28 157 C29.21236328 156.566875 29.21236328 156.566875 30.44921875 156.125 C31.51785156 155.75375 32.58648437 155.3825 33.6875 155 C34.74324219 154.62875 35.79898438 154.2575 36.88671875 153.875 C39.78362056 153.0608143 42.01700623 152.82290204 45 153 C46.66670026 156.52948291 47.13583456 158.28272326 46 162 C43.5636811 162.67126129 41.12611117 163.33716354 38.6875 164 C37.99720703 164.19078125 37.30691406 164.3815625 36.59570312 164.578125 C33.64212051 165.37716184 31.07440781 166 28 166 C27.67 169.63 27.34 173.26 27 177 C31.75375994 175.95920734 36.4967941 174.89118632 41.2265625 173.74609375 C42.556875 173.42415039 42.556875 173.42415039 43.9140625 173.09570312 C45.72962837 172.6548921 47.54473031 172.21216607 49.359375 171.76757812 C54.23165118 170.59212374 59.02384727 169.60668163 64 169 C59.11964317 156.03802335 53.2884372 144.905951 44.875 133.875 C43 131 43 131 43.265625 128.9296875 C44.26600996 126.30101639 45.60468759 125.4090073 48 124 C48.99 124 49.98 124 51 124 C52.31518555 125.3984375 52.31518555 125.3984375 53.63671875 127.375 C54.12769043 128.10477051 54.61866211 128.83454102 55.12451172 129.58642578 C55.64029785 130.38290527 56.15608398 131.17938477 56.6875 132 C57.22133301 132.81581543 57.75516602 133.63163086 58.30517578 134.47216797 C77 163.54236616 77 163.54236616 77 177 C76.01386719 177.13535156 75.02773438 177.27070313 74.01171875 177.41015625 C64.17184459 178.85889266 54.57117373 180.9661647 44.9375 183.4375 C43.79692139 183.72568604 42.65634277 184.01387207 41.48120117 184.31079102 C30.03938071 186.83504347 30.03938071 186.83504347 21.02734375 193.578125 C20.66769531 194.45984375 20.30804688 195.3415625 19.9375 196.25 C19.55464844 197.14203125 19.17179687 198.0340625 18.77734375 198.953125 C18.52082031 199.62859375 18.26429688 200.3040625 18 201 C18.87398438 200.69707031 19.74796875 200.39414062 20.6484375 200.08203125 C43.83798592 192.18202786 67.53347507 186.04651332 92 184 C85.68094772 163.43761248 77.57616686 144.82155654 65.3347168 127.04907227 C64 125 64 125 63.05004883 122.93334961 C61.8954321 120.67770597 61.07442558 119.48078853 59 118 C54.07724223 116.99101635 49.19098338 117.01889796 44.1875 117.0625 C42.81311726 117.04938288 41.43876059 117.03313891 40.06445312 117.01367188 C36.70861507 116.97834726 33.35584181 116.97493983 30 117 C29.94666504 117.59095459 29.89333008 118.18190918 29.83837891 118.79077148 C28.95248436 127.74195954 26.59981143 135.40139735 20.328125 142.109375 C7.9388289 152.17048123 -5.75606988 152.89207164 -21 152 C-26.75206006 151.31917954 -32.50602472 150.108396 -38.02784729 148.35670471 C-43.15842455 146.88767909 -46.18167697 146.85614189 -50.92279053 149.3396759 C-51.5824884 149.71871567 -52.24218628 150.09775543 -52.921875 150.48828125 C-53.62975159 150.86607224 -54.33762817 151.24386322 -55.06695557 151.63310242 C-57.30885975 152.83525892 -59.52923595 154.07179711 -61.75 155.3125 C-63.98827272 156.53523779 -66.23036887 157.75039271 -68.47589111 158.95976257 C-69.86665604 159.71171262 -71.25265885 160.47255882 -72.63299561 161.2434845 C-76.06942009 163.13101803 -79.09231736 164.50709274 -83 165 C-85.93026234 161.53580699 -88.15721898 158.1178428 -90.1875 154.0625 C-90.69667969 153.06347656 -91.20585937 152.06445312 -91.73046875 151.03515625 C-95.2887445 142.52814007 -95.5670239 131.43813037 -93.01171875 122.5703125 C-88.32222277 112.1873721 -80.22421952 106.97000393 -70.421875 101.875 C-65.82095216 99.35394639 -61.38853605 96.58768693 -56.9375 93.8125 C-56.03080566 93.24732666 -55.12411133 92.68215332 -54.18994141 92.09985352 C-52.35146325 90.9536097 -50.51308414 89.80720699 -48.67480469 88.66064453 C-44.65341154 86.16397456 -40.60783171 83.70761242 -36.5625 81.25 C-28.9603922 76.62358161 -21.45740796 71.85570775 -14 67 C-16.95678887 54.24930431 -19.91648289 41.52971748 -23.94921875 29.06640625 C-24.23410156 28.17824219 -24.51898438 27.29007812 -24.8125 26.375 C-25.06644531 25.61960937 -25.32039063 24.86421875 -25.58203125 24.0859375 C-26.05535018 21.7237664 -25.75333752 20.2651373 -25 18 C-23.679265 19.21914 -22.35853756 20.4382882 -21.0378418 21.6574707 C-19.87406648 22.73166151 -18.71016386 23.80571441 -17.54614258 24.87963867 C-14.5356309 27.65748502 -11.52700254 30.43729893 -8.5234375 33.22265625 C-5.83314964 35.71743581 -3.13220471 38.20030113 -0.42773438 40.6796875 C0.87844983 41.88759519 2.16676917 43.11474762 3.453125 44.34375 C4.14921875 44.9934375 4.8453125 45.643125 5.5625 46.3125 C6.14128906 46.86550781 6.72007812 47.41851562 7.31640625 47.98828125 C8.99619329 49.2407955 8.99619329 49.2407955 11.21484375 48.66796875 C11.80394531 48.44753906 12.39304687 48.22710937 13 48 C10.43199303 36.81565384 7.19917487 25.90013417 3.73046875 14.96337891 C3.22386719 13.35342041 3.22386719 13.35342041 2.70703125 11.7109375 C2.4025708 10.75493652 2.09811035 9.79893555 1.78442383 8.81396484 C0.96942438 5.89031603 0.44645106 3.00017329 0 0 Z " fill="#181711" transform="translate(343,269)"/>
<path d="M0 0 C23.34302649 8.65878994 45.00058755 27.27257713 61 46 C61.71115967 45.28884033 62.42231934 44.57768066 63.1550293 43.8449707 C76.07751465 30.92248535 76.07751465 30.92248535 89 18 C92.13405668 19.38596867 94.21834182 20.99071156 96.6015625 23.44140625 C97.58382812 24.44010742 97.58382812 24.44010742 98.5859375 25.45898438 C99.25882813 26.15314453 99.93171875 26.84730469 100.625 27.5625 C101.96911869 28.94098537 103.31537153 30.31739401 104.6640625 31.69140625 C105.25654785 32.30185791 105.8490332 32.91230957 106.45947266 33.54125977 C107.95434048 35.09810782 107.95434048 35.09810782 110 36 C108.36221955 40.19625909 105.26676818 42.98676785 102.1171875 46.078125 C101.54292023 46.64956238 100.96865295 47.22099976 100.37698364 47.80975342 C98.5476419 49.62792945 96.71145807 51.43901492 94.875 53.25 C93.63105226 54.48391329 92.3875573 55.71828322 91.14453125 56.953125 C88.10157633 59.97406743 85.05246746 62.98867092 82 66 C83.3089572 69.12197478 83.3089572 69.12197478 86 71 C86.99966797 70.18208984 86.99966797 70.18208984 88.01953125 69.34765625 C89.95560956 67.76359218 91.89461758 66.1831047 93.8359375 64.60546875 C95.9344568 62.89126753 97.99716179 61.14447144 100.0390625 59.36328125 C100.99554688 58.54214844 101.95203125 57.72101563 102.9375 56.875 C103.81277344 56.10929687 104.68804687 55.34359375 105.58984375 54.5546875 C108 53 108 53 109.96875 53.21411133 C112.3352952 54.12972539 113.29521502 55.07952088 114.91015625 57.01953125 C115.68262695 57.93508789 115.68262695 57.93508789 116.47070312 58.86914062 C117.25864258 59.83110352 117.25864258 59.83110352 118.0625 60.8125 C118.59166016 61.44220703 119.12082031 62.07191406 119.66601562 62.72070312 C122.19972487 65.75034542 124.67472095 68.80575853 127 72 C125.47703455 75.86398092 123.17381929 77.71920742 119.9375 80.25 C114.79918899 84.33760098 109.86451993 88.59190416 105 93 C105.50603992 95.16874252 105.99983813 96.99967627 107 99 C112.00333301 97.20367152 116.54736306 94.62459879 121.1875 92.0625 C122.06011475 91.58393555 122.93272949 91.10537109 123.83178711 90.61230469 C130.8256908 86.73976716 137.6434243 82.61666964 144.3503418 78.26586914 C145.05070557 77.82235107 145.75106934 77.37883301 146.47265625 76.921875 C147.08375244 76.52581055 147.69484863 76.12974609 148.32446289 75.72167969 C150 75 150 75 153 76 C154.44213867 77.99365234 154.44213867 77.99365234 155.91796875 80.5859375 C156.44970703 81.51664062 156.98144531 82.44734375 157.52929688 83.40625 C158.35010742 84.87578125 158.35010742 84.87578125 159.1875 86.375 C159.74630859 87.34695313 160.30511719 88.31890625 160.88085938 89.3203125 C165 96.60299336 165 96.60299336 165 100 C164.0884314 100.51216064 164.0884314 100.51216064 163.15844727 101.03466797 C150.36234793 108.22998803 137.6182673 115.4967887 125 123 C125.33 124.98 125.66 126.96 126 129 C126.72590332 128.67725098 127.45180664 128.35450195 128.19970703 128.02197266 C131.50688168 126.55346672 134.8159154 125.08919673 138.125 123.625 C139.26710938 123.11710937 140.40921875 122.60921875 141.5859375 122.0859375 C142.69453125 121.59609375 143.803125 121.10625 144.9453125 120.6015625 C145.96125488 120.15119629 146.97719727 119.70083008 148.02392578 119.23681641 C150.97938497 118.00856733 153.95218525 116.9735523 157 116 C158.46256659 118.7269181 159.91928541 121.4569188 161.375 124.1875 C161.7875 124.95642578 162.2 125.72535156 162.625 126.51757812 C168.06346163 136.73662296 168.06346163 136.73662296 167.90209961 139.94897461 C166.51100019 143.11179632 164.31830376 143.63630944 161.21484375 145.015625 C160.04501953 145.54414063 158.87519531 146.07265625 157.66992188 146.6171875 C156.42592031 147.1617761 155.18177779 147.70604282 153.9375 148.25 C152.68885065 148.80855093 151.44079514 149.36843145 150.19335938 149.9296875 C147.13450773 151.29967511 144.07020604 152.65569807 141 154 C141.59651306 157.02266703 142.22669667 160.01725858 143 163 C143.99580078 162.566875 143.99580078 162.566875 145.01171875 162.125 C148.55029169 160.79283136 152.14342478 159.88361548 155.8125 159 C156.48603516 158.835 157.15957031 158.67 157.85351562 158.5 C159.2137467 158.16677593 160.57459073 157.83604402 161.93603516 157.5078125 C163.34514064 157.16111988 164.75102513 156.80113413 166.15380859 156.4296875 C169.59008983 155.52544486 172.41867 155 176 155 C175.54177532 158.46941546 175.10868317 161.67395049 174 165 C171.56665039 165.95141602 171.56665039 165.95141602 168.34765625 166.75390625 C167.17783203 167.05103516 166.00800781 167.34816406 164.80273438 167.65429688 C163.56845703 167.95400391 162.33417969 168.25371094 161.0625 168.5625 C159.86302734 168.86607422 158.66355469 169.16964844 157.42773438 169.48242188 C150.65244849 171.17901556 143.865584 172.71598234 137 174 C136.52949219 172.91460937 136.05898438 171.82921875 135.57421875 170.7109375 C134.94539781 169.26558788 134.31648677 167.82027746 133.6875 166.375 C133.37876953 165.66214844 133.07003906 164.94929687 132.75195312 164.21484375 C131.33137037 160.95498016 129.89273194 157.80042065 128.20703125 154.6640625 C127 152 127 152 128 149 C129.93017578 147.77319336 129.93017578 147.77319336 132.4453125 146.58984375 C133.35796875 146.15736328 134.270625 145.72488281 135.2109375 145.27929688 C136.17257812 144.83650391 137.13421875 144.39371094 138.125 143.9375 C139.0634375 143.49083984 140.001875 143.04417969 140.96875 142.58398438 C145.91805533 140.26529722 150.68922757 138.30194836 156 137 C155.01 134.03 154.02 131.06 153 128 C152.17274414 128.39904541 151.34548828 128.79809082 150.49316406 129.20922852 C147.41874755 130.68535422 144.33967727 132.1507331 141.25683594 133.60913086 C139.92408749 134.24226744 138.5933291 134.879611 137.26464844 135.52124023 C135.3533997 136.44329633 133.43548319 137.34994031 131.515625 138.25390625 C130.36352539 138.80377197 129.21142578 139.3536377 128.02441406 139.92016602 C125 141 125 141 122.75610352 140.91723633 C120.40385557 139.6886258 119.66869796 138.3839542 118.38671875 136.0703125 C117.94392578 135.27496094 117.50113281 134.47960937 117.04492188 133.66015625 C116.59697266 132.82355469 116.14902344 131.98695313 115.6875 131.125 C115.22021484 130.29613281 114.75292969 129.46726562 114.27148438 128.61328125 C111.75143044 124.00496992 111.75143044 124.00496992 111 122 C112.25838179 118.22485464 113.38851502 117.90248455 116.78515625 115.9609375 C117.78417969 115.38424316 118.78320312 114.80754883 119.8125 114.21337891 C120.885 113.60671387 121.9575 113.00004883 123.0625 112.375 C124.14402344 111.75415527 125.22554687 111.13331055 126.33984375 110.49365234 C129.55418605 108.6521816 132.77565651 106.82389161 136 105 C136.89187012 104.49404297 137.78374023 103.98808594 138.70263672 103.46679688 C143.12514116 100.95980014 147.5567031 98.46995034 152 96 C151.01 93.69 150.02 91.38 149 89 C144.67116471 90.31006341 140.98165828 91.98930203 137.078125 94.265625 C135.96953125 94.90886719 134.8609375 95.55210937 133.71875 96.21484375 C132.56245638 96.89315482 131.40620658 97.57154058 130.25 98.25 C129.12078125 98.90613281 127.9915625 99.56226563 126.828125 100.23828125 C120.83480863 103.72744575 114.88436246 107.26602596 109.01464844 110.95996094 C107 112 107 112 104 112 C102.46606445 110.34765625 102.46606445 110.34765625 100.86328125 108.0625 C100.28642578 107.25039063 99.70957031 106.43828125 99.11523438 105.6015625 C98.22288086 104.31378906 98.22288086 104.31378906 97.3125 103 C96.70599609 102.14148438 96.09949219 101.28296875 95.47460938 100.3984375 C93.97408277 98.27170688 92.48312498 96.13888554 91 94 C92.30146113 91.07014255 93.59204774 89.21381267 96.046875 87.16015625 C96.645 86.65419922 97.243125 86.14824219 97.859375 85.62695312 C98.48328125 85.11068359 99.1071875 84.59441406 99.75 84.0625 C100.3584375 83.55009766 100.966875 83.03769531 101.59375 82.50976562 C103.39004668 80.99941788 105.1939111 79.49861667 107 78 C108.1512037 77.04055897 109.30225792 76.08093853 110.453125 75.12109375 C111.29359375 74.42113281 112.1340625 73.72117187 113 73 C112.690625 72.401875 112.38125 71.80375 112.0625 71.1875 C111 69 111 69 110 66 C104.67359785 68.83029052 100.31210708 72.06339447 95.8125 76.0625 C85.63398295 85 85.63398295 85 83 85 C81.50122497 83.34516392 80.07511527 81.62409488 78.6875 79.875 C76.15508843 76.68800708 73.62607473 73.56155893 70.875 70.5625 C69 68 69 68 69.22654724 66.01739502 C70.52269768 62.63664886 73.23579285 60.40119406 75.78515625 57.921875 C76.36083847 57.35043762 76.93652069 56.77900024 77.52964783 56.19024658 C79.36700319 54.36966198 81.21452132 52.55979432 83.0625 50.75 C84.31123138 49.51631747 85.55928669 48.28195022 86.80664062 47.046875 C89.8633102 44.02325345 92.92913526 41.00920079 96 38 C94.35 36.02 92.7 34.04 91 32 C86.89891114 33.62156024 84.16851833 36.5767703 81.140625 39.6640625 C80.316763 40.49216934 80.316763 40.49216934 79.47625732 41.33700562 C77.72940707 43.09501815 75.98965399 44.8598689 74.25 46.625 C73.06426409 47.8207708 71.8780712 49.01608865 70.69140625 50.2109375 C67.78894915 53.13540253 64.8928359 56.06601874 62 59 C58.951636 57.65389402 57.02780539 56.21127862 54.8203125 53.7265625 C54.22839111 53.07236328 53.63646973 52.41816406 53.02661133 51.74414062 C52.39907959 51.04482422 51.77154785 50.34550781 51.125 49.625 C40.85485034 38.44722068 29.8892215 29.02625515 17 21 C18.85678773 28.01922029 20.89398185 34.95197501 23.1328125 41.859375 C24 45 24 45 25 52 C20.05 55.3 15.1 58.6 10 62 C6.40898025 60.20449013 4.79883415 58.99556278 2.125 56.1875 C-1.06849566 52.84531932 -4.42331654 49.91942966 -8 47 C-7.84329834 47.60996826 -7.68659668 48.21993652 -7.52514648 48.84838867 C-6.81828696 51.62543102 -6.12776758 54.40628926 -5.4375 57.1875 C-5.0672168 58.62706055 -5.0672168 58.62706055 -4.68945312 60.09570312 C-4.46064453 61.02705078 -4.23183594 61.95839844 -3.99609375 62.91796875 C-3.78138428 63.77156982 -3.5666748 64.6251709 -3.34545898 65.50463867 C-2.95029495 68.35903559 -3.08395883 70.26612729 -4 73 C-5.53686523 74.4152832 -5.53686523 74.4152832 -7.55859375 75.55078125 C-8.32421631 75.99389648 -9.08983887 76.43701172 -9.87866211 76.89355469 C-10.72307861 77.36180664 -11.56749512 77.83005859 -12.4375 78.3125 C-14.26159741 79.36383946 -16.08445097 80.41733908 -17.90625 81.47265625 C-18.88722656 82.0361377 -19.86820312 82.59961914 -20.87890625 83.18017578 C-26.46060522 86.43471146 -31.94393748 89.84971611 -37.4375 93.25 C-39.54023914 94.54707838 -41.64310108 95.84395772 -43.74609375 97.140625 C-47.76346778 99.61923533 -47.76346778 99.61923533 -51.77960205 102.09985352 C-53.57266113 103.20793922 -55.36636531 104.31497455 -57.16015625 105.421875 C-58.76515991 106.4133252 -58.76515991 106.4133252 -60.40258789 107.42480469 C-63 109 -63 109 -65 110 C-65.66764406 125.23421771 -65.66764406 125.23421771 -62.65625 140.0390625 C-62 142 -62 142 -62 145 C-60.94941406 144.32710937 -59.89882813 143.65421875 -58.81640625 142.9609375 C-55.94968326 141.18919805 -53.05972126 139.48738615 -50.09375 137.88671875 C-49.41763672 137.52022217 -48.74152344 137.15372559 -48.04492188 136.77612305 C-43.87904834 135.19502085 -40.94581797 136.42287215 -37 138 C-33.99584059 138.78183502 -30.96647217 139.44676081 -27.9375 140.125 C-26.42529304 140.47969583 -24.91353403 140.83630978 -23.40234375 141.1953125 C-22.27957031 141.46085938 -21.15679687 141.72640625 -20 142 C-20.3125 143.9375 -20.3125 143.9375 -21 146 C-21.99 146.33 -22.98 146.66 -24 147 C-24.33 147.66 -24.66 148.32 -25 149 C-30.78367212 150.34263817 -34.38056541 149.90257555 -39.82421875 147.59375 C-44.92885233 146.20074407 -49.25252012 148.97924683 -53.69140625 151.30859375 C-54.63209206 151.79876732 -54.63209206 151.79876732 -55.59178162 152.29884338 C-57.5851597 153.33918842 -59.57386437 154.38812302 -61.5625 155.4375 C-62.90268867 156.1392568 -64.24318067 156.84043465 -65.58398438 157.54101562 C-68.04564865 158.82768448 -70.50505595 160.11832788 -72.96313477 161.41186523 C-73.96530029 161.93594971 -74.96746582 162.46003418 -76 163 C-76.7528125 163.403396 -77.505625 163.80679199 -78.28125 164.22241211 C-80 165 -80 165 -82.05859375 164.8828125 C-86.90972586 162.6768651 -89.67603439 155.99387317 -91.8125 151.3125 C-95.34362118 141.4625304 -95.98613043 129.15591132 -91.625 119.5 C-86.65795355 110.91526866 -79.00752858 106.3375996 -70.421875 101.875 C-65.82095216 99.35394639 -61.38853605 96.58768693 -56.9375 93.8125 C-56.03080566 93.24732666 -55.12411133 92.68215332 -54.18994141 92.09985352 C-52.35146325 90.9536097 -50.51308414 89.80720699 -48.67480469 88.66064453 C-44.65341154 86.16397456 -40.60783171 83.70761242 -36.5625 81.25 C-28.9603922 76.62358161 -21.45740796 71.85570775 -14 67 C-16.95678887 54.24930431 -19.91648289 41.52971748 -23.94921875 29.06640625 C-24.23410156 28.17824219 -24.51898438 27.29007812 -24.8125 26.375 C-25.06644531 25.61960937 -25.32039063 24.86421875 -25.58203125 24.0859375 C-26.05535018 21.7237664 -25.75333752 20.2651373 -25 18 C-23.679265 19.21914 -22.35853756 20.4382882 -21.0378418 21.6574707 C-19.87406648 22.73166151 -18.71016386 23.80571441 -17.54614258 24.87963867 C-14.5356309 27.65748502 -11.52700254 30.43729893 -8.5234375 33.22265625 C-5.83314964 35.71743581 -3.13220471 38.20030113 -0.42773438 40.6796875 C0.87844983 41.88759519 2.16676917 43.11474762 3.453125 44.34375 C4.14921875 44.9934375 4.8453125 45.643125 5.5625 46.3125 C6.14128906 46.86550781 6.72007812 47.41851562 7.31640625 47.98828125 C8.99619329 49.2407955 8.99619329 49.2407955 11.21484375 48.66796875 C11.80394531 48.44753906 12.39304687 48.22710937 13 48 C10.43199303 36.81565384 7.19917487 25.90013417 3.73046875 14.96337891 C3.22386719 13.35342041 3.22386719 13.35342041 2.70703125 11.7109375 C2.4025708 10.75493652 2.09811035 9.79893555 1.78442383 8.81396484 C0.96942438 5.89031603 0.44645106 3.00017329 0 0 Z " fill="#15140E" transform="translate(343,269)"/>
<path d="M0 0 C17.42893338 20.88183527 28.47058887 47.12592751 36 73 C36.21495117 73.72944824 36.42990234 74.45889648 36.65136719 75.21044922 C37.91318065 79.80076365 38 83.03720698 38 88 C43.61 88 49.22 88 55 88 C54.566875 86.73542969 54.13375 85.47085938 53.6875 84.16796875 C53.12476246 82.507893 52.56227547 80.84773231 52 79.1875 C51.71382812 78.35412109 51.42765625 77.52074219 51.1328125 76.66210938 C50.86210937 75.85966797 50.59140625 75.05722656 50.3125 74.23046875 C49.93544922 73.12288208 49.93544922 73.12288208 49.55078125 71.99291992 C49 70 49 70 49 67 C72.89101498 59.29700499 72.89101498 59.29700499 78 61 C77.22138348 64.47102877 76.22852052 67.20070028 74 70 C69.75606956 71.69967054 65.52358278 72.43128367 61 73 C61.22816406 73.73605469 61.45632813 74.47210938 61.69140625 75.23046875 C61.97886719 76.20628906 62.26632812 77.18210937 62.5625 78.1875 C62.85253906 79.15042969 63.14257812 80.11335938 63.44140625 81.10546875 C64.33742914 85.74849647 63.34991009 89.33519285 60.75 93.25 C57.20149878 97.12438399 54.06823783 97.5055606 49.06762695 97.75561523 C46.28075039 97.81449113 43.49436224 97.85263681 40.70703125 97.8828125 C14.19517752 98.17783566 -13.21918845 105.75598377 -38.45458984 113.24658203 C-41.73212138 114.21670119 -45.02149779 115.1391804 -48.3125 116.0625 C-50.54209718 116.7068455 -52.77123638 117.35277712 -55 118 C-55.68143066 118.19352051 -56.36286133 118.38704102 -57.06494141 118.58642578 C-65.57621705 121.00839393 -73.98991207 123.58558396 -82.296875 126.64453125 C-82.92355072 126.87416565 -83.55022644 127.10380005 -84.19589233 127.34039307 C-87.31598474 128.48614472 -90.42718967 129.64874628 -93.53173828 130.83642578 C-94.67368652 131.26036621 -95.81563477 131.68430664 -96.9921875 132.12109375 C-98.00651855 132.5070874 -99.02084961 132.89308105 -100.06591797 133.29077148 C-105.80197442 134.67729536 -109.92310376 132.77578199 -114.875 129.9375 C-115.84179688 129.38964844 -116.80859375 128.84179688 -117.8046875 128.27734375 C-118.52914063 127.85582031 -119.25359375 127.43429687 -120 127 C-120.54008742 122.87933304 -120.7489579 119.10344537 -120 115 C-117.4988836 112.13640297 -114.33722342 110.74577294 -111 109 C-91.89295907 96.20799802 -80.94408226 80.16982034 -75 58 C-74.82960205 57.39381836 -74.6592041 56.78763672 -74.48364258 56.16308594 C-73.96027031 53.82230941 -73.79108519 51.62989859 -73.68359375 49.234375 C-73.62075195 47.90019531 -73.62075195 47.90019531 -73.55664062 46.5390625 C-73.51732422 45.61867188 -73.47800781 44.69828125 -73.4375 43.75 C-73.37272461 42.34621094 -73.37272461 42.34621094 -73.30664062 40.9140625 C-73.20082061 38.60953778 -73.09993083 36.30478761 -73 34 C-68.545 33.505 -68.545 33.505 -64 33 C-64 35.64 -64 38.28 -64 41 C-63.19175781 40.71125 -62.38351562 40.4225 -61.55078125 40.125 C-60.48214844 39.75375 -59.41351563 39.3825 -58.3125 39 C-57.25675781 38.62875 -56.20101562 38.2575 -55.11328125 37.875 C-52.21637944 37.0608143 -49.98299377 36.82290204 -47 37 C-45.33329974 40.52948291 -44.86416544 42.28272326 -46 46 C-48.4363189 46.67126129 -50.87388883 47.33716354 -53.3125 48 C-54.00279297 48.19078125 -54.69308594 48.3815625 -55.40429688 48.578125 C-58.35787949 49.37716184 -60.92559219 50 -64 50 C-64.33 53.63 -64.66 57.26 -65 61 C-60.24624006 59.95920734 -55.5032059 58.89118632 -50.7734375 57.74609375 C-49.443125 57.42415039 -49.443125 57.42415039 -48.0859375 57.09570312 C-46.27037163 56.6548921 -44.45526969 56.21216607 -42.640625 55.76757812 C-37.76834882 54.59212374 -32.97615273 53.60668163 -28 53 C-32.88035683 40.03802335 -38.7115628 28.905951 -47.125 17.875 C-49 15 -49 15 -48.734375 12.9296875 C-47.73399004 10.30101639 -46.39531241 9.4090073 -44 8 C-43.01 8 -42.02 8 -41 8 C-39.68481445 9.3984375 -39.68481445 9.3984375 -38.36328125 11.375 C-37.87230957 12.10477051 -37.38133789 12.83454102 -36.87548828 13.58642578 C-36.35970215 14.38290527 -35.84391602 15.17938477 -35.3125 16 C-34.77866699 16.81581543 -34.24483398 17.63163086 -33.69482422 18.47216797 C-15 47.54236616 -15 47.54236616 -15 61 C-16.47919922 61.20302734 -16.47919922 61.20302734 -17.98828125 61.41015625 C-27.82815541 62.85889266 -37.42882627 64.9661647 -47.0625 67.4375 C-48.20307861 67.72568604 -49.34365723 68.01387207 -50.51879883 68.31079102 C-61.96061929 70.83504347 -61.96061929 70.83504347 -70.97265625 77.578125 C-71.33230469 78.45984375 -71.69195312 79.3415625 -72.0625 80.25 C-72.44535156 81.14203125 -72.82820313 82.0340625 -73.22265625 82.953125 C-73.47917969 83.62859375 -73.73570312 84.3040625 -74 85 C-72.68902344 84.54560547 -72.68902344 84.54560547 -71.3515625 84.08203125 C-48.16201408 76.18202786 -24.46652493 70.04651332 0 68 C-3.46787443 56.84927309 -6.96769402 45.96077295 -12.59765625 35.68383789 C-15.19434548 30.67311869 -15.12956168 27.5311689 -14 22 C-12.35 21.34 -10.7 20.68 -9 20 C-2.33657336 33.02243277 3.84115642 46.00445376 8.375 59.9375 C8.63812988 60.73067627 8.90125977 61.52385254 9.17236328 62.34106445 C9.41196777 63.10378662 9.65157227 63.86650879 9.8984375 64.65234375 C10.11161621 65.32257568 10.32479492 65.99280762 10.54443359 66.68334961 C11.15867232 69.8068819 11.06768666 72.82616773 11 76 C10.1248877 76.13051758 9.24977539 76.26103516 8.34814453 76.39550781 C-12.50660863 79.52550231 -32.94553811 82.76417048 -53.02783203 89.36328125 C-55.02085435 90.00673287 -57.02122975 90.61744921 -59.02734375 91.21875 C-63.03741044 92.42269052 -67.02419289 93.68745511 -71 95 C-71.66483398 95.21736816 -72.32966797 95.43473633 -73.01464844 95.65869141 C-81.00088025 98.33565146 -86.95210203 101.18312331 -92.66796875 107.609375 C-95.51085675 110.52369235 -98.58836694 112.76701134 -101.9375 115.0625 C-102.5061377 115.45671143 -103.07477539 115.85092285 -103.66064453 116.25708008 C-107.72682222 119 -107.72682222 119 -110 119 C-109.67 120.98 -109.34 122.96 -109 125 C-108.00782471 124.65743164 -107.01564941 124.31486328 -105.9934082 123.96191406 C-102.24985268 122.67002443 -98.50531377 121.38100508 -94.76049805 120.09277344 C-93.15151187 119.53884701 -91.54277993 118.98418147 -89.93432617 118.42871094 C-51.64931089 105.20970286 -12.25405531 94.13569357 28 89 C27.44295826 82.64466015 26.36046538 76.84658297 24.5 70.75 C24.23936768 69.89301514 23.97873535 69.03603027 23.71020508 68.15307617 C17.25260681 47.65592583 7.56028038 28.30695722 -4.45849609 10.53027344 C-4.90531738 9.86415039 -5.35213867 9.19802734 -5.8125 8.51171875 C-6.21082031 7.92865967 -6.60914063 7.34560059 -7.01953125 6.74487305 C-8.08376116 4.85093599 -8.56730234 3.12074197 -9 1 C-8.4225 1.350625 -7.845 1.70125 -7.25 2.0625 C-5.06489351 3.18726544 -5.06489351 3.18726544 -2.8125 2.75 C-0.80184414 2.14991567 -0.80184414 2.14991567 0 0 Z " fill="#16160F" transform="translate(435,385)"/>
<path d="M0 0 C4.23335789 -0.83807593 7.7860995 -1.03051804 12 0 C15.42258317 3.15675147 17.58894028 6.87828109 19.82861328 10.90771484 C21.0636248 13.11364412 22.36563224 15.26847897 23.68359375 17.42578125 C53.00535595 65.94108455 53.00535595 65.94108455 51 88 C49.41941695 89.58058305 47.63532051 89.40807781 45.4453125 89.69140625 C-0.41159628 95.97875268 -44.2648561 110.28365295 -88 125 C-88.296875 121.703125 -88.296875 121.703125 -88 118 C-86.015625 116.171875 -86.015625 116.171875 -83.25 114.75 C-78.47048564 112.03730266 -74.73012612 109.0994135 -70.8125 105.3125 C-66.45512682 101.1920899 -62.62913229 98.11326229 -57 96 C-55.31003906 95.31550781 -55.31003906 95.31550781 -53.5859375 94.6171875 C-43.59140375 90.64743149 -33.39867074 87.70104424 -23 85 C-22.33000977 84.82227051 -21.66001953 84.64454102 -20.96972656 84.46142578 C15.69906194 74.74209782 15.69906194 74.74209782 33 75 C29.91583422 57.25870351 23.59730545 40.76564164 15 25 C14.62552734 24.3085791 14.25105469 23.6171582 13.86523438 22.90478516 C9.58479558 15.03992849 5.18192984 7.31566566 0 0 Z " fill="#A69B86" transform="translate(413,386)"/>
<path d="M0 0 C1.44213867 1.99365234 1.44213867 1.99365234 2.91796875 4.5859375 C3.44970703 5.51664062 3.98144531 6.44734375 4.52929688 7.40625 C5.07650391 8.3859375 5.62371094 9.365625 6.1875 10.375 C6.74630859 11.34695313 7.30511719 12.31890625 7.88085938 13.3203125 C12 20.60299336 12 20.60299336 12 24 C11.3922876 24.34144043 10.7845752 24.68288086 10.15844727 25.03466797 C-2.63765207 32.22998803 -15.3817327 39.4967887 -28 47 C-27.67 48.98 -27.34 50.96 -27 53 C-26.27409668 52.67725098 -25.54819336 52.35450195 -24.80029297 52.02197266 C-21.49311832 50.55346672 -18.1840846 49.08919673 -14.875 47.625 C-13.73289062 47.11710937 -12.59078125 46.60921875 -11.4140625 46.0859375 C-9.75117188 45.35117187 -9.75117188 45.35117187 -8.0546875 44.6015625 C-7.03874512 44.15119629 -6.02280273 43.70083008 -4.97607422 43.23681641 C-2.02061503 42.00856733 0.95218525 40.9735523 4 40 C5.46256659 42.7269181 6.91928541 45.4569188 8.375 48.1875 C8.7875 48.95642578 9.2 49.72535156 9.625 50.51757812 C15.06346163 60.73662296 15.06346163 60.73662296 14.90209961 63.94897461 C13.51100019 67.11179632 11.31830376 67.63630944 8.21484375 69.015625 C6.46010742 69.80839844 6.46010742 69.80839844 4.66992188 70.6171875 C3.42592031 71.1617761 2.18177779 71.70604282 0.9375 72.25 C-0.31114935 72.80855093 -1.55920486 73.36843145 -2.80664062 73.9296875 C-5.86549227 75.29967511 -8.92979396 76.65569807 -12 78 C-11.40348694 81.02266703 -10.77330333 84.01725858 -10 87 C-9.33613281 86.71125 -8.67226563 86.4225 -7.98828125 86.125 C-4.44970831 84.79283136 -0.85657522 83.88361548 2.8125 83 C3.48603516 82.835 4.15957031 82.67 4.85351562 82.5 C6.2137467 82.16677593 7.57459073 81.83604402 8.93603516 81.5078125 C10.34514064 81.16111988 11.75102513 80.80113413 13.15380859 80.4296875 C16.59008983 79.52544486 19.41867 79 23 79 C22.54177532 82.46941546 22.10868317 85.67395049 21 89 C18.56665039 89.95141602 18.56665039 89.95141602 15.34765625 90.75390625 C14.17783203 91.05103516 13.00800781 91.34816406 11.80273438 91.65429688 C10.56845703 91.95400391 9.33417969 92.25371094 8.0625 92.5625 C6.86302734 92.86607422 5.66355469 93.16964844 4.42773438 93.48242188 C-2.34755151 95.17901556 -9.134416 96.71598234 -16 98 C-16.70576172 96.37191406 -16.70576172 96.37191406 -17.42578125 94.7109375 C-18.05460219 93.26558788 -18.68351323 91.82027746 -19.3125 90.375 C-19.62123047 89.66214844 -19.92996094 88.94929688 -20.24804688 88.21484375 C-21.66862963 84.95498016 -23.10726806 81.80042065 -24.79296875 78.6640625 C-26 76 -26 76 -25 73 C-23.06982422 71.77319336 -23.06982422 71.77319336 -20.5546875 70.58984375 C-19.18570312 69.94112305 -19.18570312 69.94112305 -17.7890625 69.27929688 C-16.82742188 68.83650391 -15.86578125 68.39371094 -14.875 67.9375 C-13.9365625 67.49083984 -12.998125 67.04417969 -12.03125 66.58398438 C-7.08194467 64.26529722 -2.31077243 62.30194836 3 61 C2.01 58.03 1.02 55.06 0 52 C-0.82725586 52.39904541 -1.65451172 52.79809082 -2.50683594 53.20922852 C-5.58125245 54.68535422 -8.66032273 56.1507331 -11.74316406 57.60913086 C-13.07591251 58.24226744 -14.4066709 58.879611 -15.73535156 59.52124023 C-17.6466003 60.44329633 -19.56451681 61.34994031 -21.484375 62.25390625 C-22.63647461 62.80377197 -23.78857422 63.3536377 -24.97558594 63.92016602 C-28 65 -28 65 -30.24389648 64.91723633 C-32.59614443 63.6886258 -33.33130204 62.3839542 -34.61328125 60.0703125 C-35.05607422 59.27496094 -35.49886719 58.47960937 -35.95507812 57.66015625 C-36.40302734 56.82355469 -36.85097656 55.98695313 -37.3125 55.125 C-37.77978516 54.29613281 -38.24707031 53.46726562 -38.72851562 52.61328125 C-41.24856956 48.00496992 -41.24856956 48.00496992 -42 46 C-40.74161821 42.22485464 -39.61148498 41.90248455 -36.21484375 39.9609375 C-35.21582031 39.38424316 -34.21679688 38.80754883 -33.1875 38.21337891 C-31.57875 37.30338135 -31.57875 37.30338135 -29.9375 36.375 C-28.85597656 35.75415527 -27.77445312 35.13331055 -26.66015625 34.49365234 C-23.44581395 32.6521816 -20.22434349 30.82389161 -17 29 C-16.10812988 28.49404297 -15.21625977 27.98808594 -14.29736328 27.46679688 C-9.87485884 24.95980014 -5.4432969 22.46995034 -1 20 C-1.92243161 17.63492825 -2.92785124 15.30107399 -4 13 C-6.45286596 12.00922702 -6.45286596 12.00922702 -9 12 C-9.99 11.67 -10.98 11.34 -12 11 C-12.33 9.02 -12.66 7.04 -13 5 C-11.40377344 3.96679519 -9.79770894 2.94877571 -8.1875 1.9375 C-7.29417969 1.36902344 -6.40085937 0.80054688 -5.48046875 0.21484375 C-3 -1 -3 -1 0 0 Z " fill="#16150F" transform="translate(496,345)"/>
<path d="M0 0 C2.00720923 0.28674418 4.0085944 0.61866701 6 1 C6 1.99 6 2.98 6 4 C6.66 4.33 7.32 4.66 8 5 C8 5.66 8 6.32 8 7 C6.39868164 8.24926758 6.39868164 8.24926758 4.16015625 9.64453125 C3.34353516 10.15693359 2.52691406 10.66933594 1.68554688 11.19726562 C0.81994141 11.73029297 -0.04566406 12.26332031 -0.9375 12.8125 C-1.76830078 13.33392578 -2.59910156 13.85535156 -3.45507812 14.39257812 C-8.87668331 17.77211568 -14.38491408 20.95350818 -20 24 C-20.66764406 39.23421771 -20.66764406 39.23421771 -17.65625 54.0390625 C-17 56 -17 56 -17 59 C-15.94941406 58.32710938 -14.89882813 57.65421875 -13.81640625 56.9609375 C-10.94968326 55.18919805 -8.05972126 53.48738615 -5.09375 51.88671875 C-4.41763672 51.52022217 -3.74152344 51.15372559 -3.04492188 50.77612305 C1.12095166 49.19502085 4.05418203 50.42287215 8 52 C11.00415941 52.78183502 14.03352783 53.44676081 17.0625 54.125 C18.57470696 54.47969583 20.08646597 54.83630978 21.59765625 55.1953125 C22.72042969 55.46085937 23.84320313 55.72640625 25 56 C24.6875 57.9375 24.6875 57.9375 24 60 C22.515 60.495 22.515 60.495 21 61 C20.505 61.99 20.505 61.99 20 63 C14.21632788 64.34263817 10.61943459 63.90257555 5.17578125 61.59375 C0.07114767 60.20074407 -4.25252012 62.97924683 -8.69140625 65.30859375 C-9.63209206 65.79876732 -9.63209206 65.79876732 -10.59178162 66.29884338 C-12.5851597 67.33918842 -14.57386437 68.38812302 -16.5625 69.4375 C-17.90268867 70.1392568 -19.24318067 70.84043465 -20.58398438 71.54101562 C-23.04564865 72.82768448 -25.50505595 74.11832788 -27.96313477 75.41186523 C-28.96530029 75.93594971 -29.96746582 76.46003418 -31 77 C-31.7528125 77.403396 -32.505625 77.80679199 -33.28125 78.22241211 C-35 79 -35 79 -37.05859375 78.8828125 C-41.90972586 76.6768651 -44.67603439 69.99387317 -46.8125 65.3125 C-50.34362118 55.4625304 -50.98613043 43.15591132 -46.625 33.5 C-41.67445222 24.94378394 -34.0551009 20.35244374 -25.48828125 15.9140625 C-20.50771074 13.18116267 -15.70077848 10.18332709 -10.875 7.1875 C-9.45030396 6.3054187 -9.45030396 6.3054187 -7.99682617 5.40551758 C-3.77949664 2.99174044 -3.77949664 2.99174044 0 0 Z " fill="#16150F" transform="translate(298,355)"/>
<path d="M0 0 C2.04848421 1.55709066 4.04291793 3.12171484 5.98120117 4.81591797 C6.68760742 5.42435547 7.39401367 6.03279297 8.12182617 6.65966797 C9.73120117 8.31591797 9.73120117 8.31591797 9.73120117 10.31591797 C10.57811523 10.66203125 10.57811523 10.66203125 11.44213867 11.01513672 C20.43568925 16.12580624 27.72235296 27.9546696 33.73120117 36.31591797 C33.73120117 36.64591797 33.73120117 36.97591797 33.73120117 37.31591797 C19.54120117 37.31591797 5.35120117 37.31591797 -9.26879883 37.31591797 C-9.76379883 28.40591797 -9.76379883 28.40591797 -10.26879883 19.31591797 C-13.23879883 19.64591797 -16.20879883 19.97591797 -19.26879883 20.31591797 C-19.26879883 25.92591797 -19.26879883 31.53591797 -19.26879883 37.31591797 C-34.11879883 37.31591797 -48.96879883 37.31591797 -64.26879883 37.31591797 C-61.57690919 34.62402833 -59.43553569 33.08789508 -56.19458008 31.19091797 C-55.14923096 30.57522949 -54.10388184 29.95954102 -53.02685547 29.32519531 C-51.88982178 28.66213379 -50.75278809 27.99907227 -49.58129883 27.31591797 C-47.14804025 25.89308639 -44.71603338 24.46812809 -42.28442383 23.04248047 C-41.64577896 22.66862213 -41.00713409 22.29476379 -40.34913635 21.90957642 C-36.11223556 19.42185904 -31.90673156 16.88720649 -27.71723938 14.32049561 C-24.80566164 12.53712138 -21.88704065 10.7654457 -18.96810913 8.99414062 C-17.54464992 8.12598481 -16.1245589 7.25228193 -14.70791626 6.37304688 C-12.71726236 5.13872151 -10.71548637 3.92472544 -8.71020508 2.71435547 C-8.11653137 2.33918793 -7.52285767 1.96402039 -6.91119385 1.57748413 C-2.82513786 -0.85182786 -2.82513786 -0.85182786 0 0 Z " fill="#A79C86" transform="translate(383.268798828125,338.68408203125)"/>
<path d="M0 0 C0.04487549 0.60360352 0.08975098 1.20720703 0.13598633 1.82910156 C1.32197334 18.1267423 1.32197334 18.1267423 5 34 C3.71086513 34.67154933 2.41859796 35.33708859 1.125 36 C0.40570313 36.37125 -0.31359375 36.7425 -1.0546875 37.125 C-3 38 -3 38 -5 38 C-5.64995297 36.58521865 -6.29478722 35.16808513 -6.9375 33.75 C-7.29714844 32.96109375 -7.65679687 32.1721875 -8.02734375 31.359375 C-10.79265695 24.651547 -11.35830478 16.48310956 -9.24609375 9.51171875 C-4.67831921 0 -4.67831921 0 0 0 Z " fill="#A79D8A" transform="translate(268,385)"/>
<path d="M0 0 C0.433125 0.495 0.86625 0.99 1.3125 1.5 C2.99740483 3.33218192 2.99740483 3.33218192 6 3 C6.33 3.99 6.66 4.98 7 6 C3.7 8.64 0.4 11.28 -3 14 C-4.65 12.68 -6.3 11.36 -8 10 C-6.34908222 5.70761377 -3.26245434 3.1206085 0 0 Z " fill="#A29988" transform="translate(432,327)"/>
<path d="M0 0 C3.58326501 -0.05814085 7.16640838 -0.09364357 10.75 -0.125 C11.76578125 -0.14175781 12.7815625 -0.15851562 13.828125 -0.17578125 C14.8078125 -0.18222656 15.7875 -0.18867187 16.796875 -0.1953125 C17.69760742 -0.20578613 18.59833984 -0.21625977 19.52636719 -0.22705078 C22 0 22 0 23.86328125 0.98632812 C26.9572049 2.45410361 30.0292421 2.35690494 33.390625 2.4140625 C34.09523865 2.43342865 34.79985229 2.4527948 35.52581787 2.4727478 C37.76709039 2.53232735 40.00841489 2.57884123 42.25 2.625 C43.77345938 2.66319979 45.29689762 2.70225269 46.8203125 2.7421875 C50.54668106 2.83801018 54.27320835 2.92212107 58 3 C58 3.33 58 3.66 58 4 C38.55576527 4.22520942 19.35964679 4.13655039 0 2 C0 1.34 0 0.68 0 0 Z " fill="#898374" transform="translate(348,771)"/>
<path d="M0 0 C0.33 0 0.66 0 1 0 C1.9769256 10.03093255 2.09401525 19.93813028 2 30 C1.97327082 32.91666286 1.95340149 35.83326036 1.9375 38.75 C1.92589844 40.02359375 1.91429687 41.2971875 1.90234375 42.609375 C1.98745563 45.56445958 2.3585795 48.12883385 3 51 C2.85311416 53.71501896 2.41101967 56.3055377 2 59 C1.67 59 1.34 59 1 59 C0.08376605 52.02203832 -0.13231811 45.21657061 -0.09765625 38.18359375 C-0.0962413 37.08652603 -0.09482635 35.98945831 -0.09336853 34.85914612 C-0.08781012 31.38523531 -0.07526546 27.91139104 -0.0625 24.4375 C-0.05747962 22.06966239 -0.05291766 19.70182377 -0.04882812 17.33398438 C-0.03785435 11.55596722 -0.02115811 5.77798836 0 0 Z " fill="#A0988C" transform="translate(7,367)"/>
<path d="M0 0 C0 0.99 0 1.98 0 3 C0.54453731 6.03385072 1.22658726 9.01683656 2 12 C-0.52935589 13.26467795 -1.34190903 12.7249339 -4 12 C-4.99 12 -5.98 12 -7 12 C-7.66 11.01 -8.32 10.02 -9 9 C-6.03 6.03 -3.06 3.06 0 0 Z " fill="#1D1C15" transform="translate(416,303)"/>
<path d="M0 0 C1.74949772 2.62424658 2.65389981 4.55727216 3.625 7.5 C3.88539063 8.2734375 4.14578125 9.046875 4.4140625 9.84375 C5 12 5 12 5 15 C2.36 15 -0.28 15 -3 15 C-2.85769192 13.58297487 -2.71099254 12.1663904 -2.5625 10.75 C-2.48128906 9.96109375 -2.40007812 9.1721875 -2.31640625 8.359375 C-1.91117206 5.33762868 -1.36597972 2.73195944 0 0 Z " fill="#221E15" transform="translate(415,431)"/>
<path d="M0 0 C0.33 0.66 0.66 1.32 1 2 C0.04956626 3.33897583 -0.91059147 4.67105427 -1.875 6 C-2.40867187 6.7425 -2.94234375 7.485 -3.4921875 8.25 C-3.98976563 8.8275 -4.48734375 9.405 -5 10 C-5.66 10 -6.32 10 -7 10 C-7 10.66 -7 11.32 -7 12 C-9.8125 14.6875 -9.8125 14.6875 -13 17 C-13.99 16.67 -14.98 16.34 -16 16 C-10.72 10.72 -5.44 5.44 0 0 Z " fill="#1D1911" transform="translate(430,316)"/>
<path d="M0 0 C4.41309542 3.15221101 7.00793014 6.55463907 10 11 C9.01 11.33 8.02 11.66 7 12 C4 10 4 10 3 7 C2.34 7 1.68 7 1 7 C0.67 4.69 0.34 2.38 0 0 Z " fill="#9E9383" transform="translate(407,364)"/>
<path d="M0 0 C0.33 0 0.66 0 1 0 C1 1.65 1 3.3 1 5 C1.66 5.33 2.32 5.66 3 6 C0 8 0 8 -2 8.8125 C-4.64506758 10.38300888 -5.58778423 12.31679004 -7 15 C-7.66 14.34 -8.32 13.68 -9 13 C-7.52485505 10.8304939 -6.0451561 8.66436293 -4.5625 6.5 C-4.14162109 5.87996094 -3.72074219 5.25992188 -3.28710938 4.62109375 C-2.21691863 3.06289602 -1.11120482 1.52921949 0 0 Z " fill="#A1988A" transform="translate(80,166)"/>
<path d="M0 0 C1.65 0.33 3.3 0.66 5 1 C5 1.66 5 2.32 5 3 C3.49427824 4.24385711 1.98585175 5.4848881 0.453125 6.6953125 C-1.16640905 7.98898138 -1.16640905 7.98898138 -2.125 10.25 C-2.41375 10.8275 -2.7025 11.405 -3 12 C-4.32 12.33 -5.64 12.66 -7 13 C-3.535 6.565 -3.535 6.565 0 0 Z " fill="#18160E" transform="translate(726,576)"/>
<path d="M0 0 C1.9451 2.91765 2.45276317 4.62537285 3 8 C1.71086513 8.67154933 0.41859796 9.33708859 -0.875 10 C-1.59429687 10.37125 -2.31359375 10.7425 -3.0546875 11.125 C-5 12 -5 12 -7 12 C-7.33 11.01 -7.66 10.02 -8 9 C-6.35 8.67 -4.7 8.34 -3 8 C-3 7.34 -3 6.68 -3 6 C-2.34 5.67 -1.68 5.34 -1 5 C-0.34444881 2.47266765 -0.34444881 2.47266765 0 0 Z " fill="#9E9685" transform="translate(270,411)"/>
<path d="M0 0 C0 1.98 0 3.96 0 6 C-0.66 6 -1.32 6 -2 6 C-2 6.66 -2 7.32 -2 8 C-2.99 8 -3.98 8 -5 8 C-5.66 6.02 -6.32 4.04 -7 2 C-4 0 -4 0 0 0 Z " fill="#14120D" transform="translate(477,417)"/>
<path d="M0 0 C0.66 0.33 1.32 0.66 2 1 C0.35 3.64 -1.3 6.28 -3 9 C-4.32 8.34 -5.64 7.68 -7 7 C-4.69 4.69 -2.38 2.38 0 0 Z M-9 8 C-8.34 8.33 -7.68 8.66 -7 9 C-7.99 10.485 -7.99 10.485 -9 12 C-9.99 11.67 -10.98 11.34 -12 11 C-11.01 10.01 -10.02 9.02 -9 8 Z " fill="#18160E" transform="translate(647,675)"/>
<path d="M0 0 C0.66 0.99 1.32 1.98 2 3 C1.01 4.485 1.01 4.485 0 6 C-0.33 6.66 -0.66 7.32 -1 8 C-4.17045938 9.24061454 -6.58238295 10 -10 10 C-6.7 6.7 -3.4 3.4 0 0 Z " fill="#1F1D15" transform="translate(430,289)"/>
<path d="M0 0 C2.31 1.65 4.62 3.3 7 5 C6.34 6.65 5.68 8.3 5 10 C4.01 10 3.02 10 2 10 C0.68373308 6.38026598 0 3.90432869 0 0 Z " fill="#211B12" transform="translate(317,287)"/>
<path d="M0 0 C0.99 0 1.98 0 3 0 C4.25 6.625 4.25 6.625 2 10 C-0.125 10.6875 -0.125 10.6875 -2 11 C-1.65775391 10.18595703 -1.65775391 10.18595703 -1.30859375 9.35546875 C-1.02113281 8.64003906 -0.73367188 7.92460937 -0.4375 7.1875 C-0.14746094 6.47980469 0.14257812 5.77210938 0.44140625 5.04296875 C1.25063024 2.8264933 1.25063024 2.8264933 0 0 Z " fill="#9F9785" transform="translate(511,443)"/>
<path d="M0 0 C0.66 0 1.32 0 2 0 C2 0.66 2 1.32 2 2 C2.99 2.33 3.98 2.66 5 3 C7.55929605 5.63241879 8.92057083 7.10642187 9.25 10.8125 C9.1675 11.534375 9.085 12.25625 9 13 C5.72404954 9.84538104 2.76373125 6.60820469 0 3 C0 2.01 0 1.02 0 0 Z " fill="#9D9484" transform="translate(419,361)"/>
<path d="M0 0 C1.53656962 2.4404341 2.02089707 3.70744102 1.8125 6.625 C1 9 1 9 -2 11 C-3.5 9.625 -3.5 9.625 -5 8 C-5 7.34 -5 6.68 -5 6 C-4.34 6 -3.68 6 -3 6 C-2.67 5.34 -2.34 4.68 -2 4 C-1.33333333 2.66666667 -0.66666667 1.33333333 0 0 Z " fill="#27251C" transform="translate(497,465)"/>
<path d="M0 0 C4.82675589 2.41337795 7.69984002 5.86062408 11 10 C10.34 10.66 9.68 11.32 9 12 C8.01 11.67 7.02 11.34 6 11 C6 9.35 6 7.7 6 6 C5.34 6 4.68 6 4 6 C4 5.34 4 4.68 4 4 C3.34 4 2.68 4 2 4 C2 3.34 2 2.68 2 2 C1.34 2 0.68 2 0 2 C0 1.34 0 0.68 0 0 Z " fill="#17150F" transform="translate(120,663)"/>
<path d="M0 0 C1.04449911 3.13349732 0.93423645 3.98968256 0 7 C-0.66 7 -1.32 7 -2 7 C-1.896875 7.7425 -1.79375 8.485 -1.6875 9.25 C-2 12 -2 12 -4.5 14.3125 C-5.7375 15.1478125 -5.7375 15.1478125 -7 16 C-5.35433477 10.31497465 -2.70967216 5.23318364 0 0 Z " fill="#19170E" transform="translate(738,553)"/>
<path d="M0 0 C0.33 0 0.66 0 1 0 C1.06058594 0.66386719 1.12117187 1.32773437 1.18359375 2.01171875 C1.65664499 7.35713933 1.65664499 7.35713933 2.625 12.625 C3.19030165 16.20524378 2.54543837 19.42434849 2 23 C1.67 23 1.34 23 1 23 C-0.06059488 15.31068715 -0.09928082 7.75493514 0 0 Z " fill="#817B70" transform="translate(7,403)"/>
<path d="M0 0 C3 5.625 3 5.625 3 9 C2.01 9 1.02 9 0 9 C0 8.01 0 7.02 0 6 C-0.66 6 -1.32 6 -2 6 C-2.66 4.35 -3.32 2.7 -4 1 C-2 0 -2 0 0 0 Z " fill="#979183" transform="translate(496,397)"/>
<path d="M0 0 C0.66 0.99 1.32 1.98 2 3 C0.37554381 3.98006859 -1.24958261 4.95902636 -2.875 5.9375 C-3.77992188 6.48277344 -4.68484375 7.02804687 -5.6171875 7.58984375 C-7.05201636 8.43898017 -8.50875448 9.25437724 -10 10 C-10.33 8.68 -10.66 7.36 -11 6 C-10.443125 5.9175 -9.88625 5.835 -9.3125 5.75 C-6.30005197 4.77298983 -4.40617667 3.02625404 -2 1 C-1.34 0.67 -0.68 0.34 0 0 Z " fill="#A09889" transform="translate(269,370)"/>
<path d="M0 0 C0.99 0.33 1.98 0.66 3 1 C2.67 1.99 2.34 2.98 2 4 C1.34 4 0.68 4 0 4 C-0.33 4.99 -0.66 5.98 -1 7 C-3.0625 8.1875 -3.0625 8.1875 -5 9 C-4.5206753 4.68607774 -3.2542015 2.83430453 0 0 Z " fill="#A29889" transform="translate(106,134)"/>
<path d="M0 0 C0.79921875 0.00902344 1.5984375 0.01804687 2.421875 0.02734375 C3.02515625 0.03894531 3.6284375 0.05054688 4.25 0.0625 C-0.02373998 2.19936999 -2.51923622 3.18146237 -7.375 3.125 C-8.37789063 3.11597656 -9.38078125 3.10695313 -10.4140625 3.09765625 C-11.18492187 3.08605469 -11.95578125 3.07445312 -12.75 3.0625 C-8.41514632 0.74025696 -4.91048478 -0.07221301 0 0 Z " fill="#989182" transform="translate(427.75,489.9375)"/>
<path d="M0 0 C-0.99 2.31 -1.98 4.62 -3 7 C-3.66 6.34 -4.32 5.68 -5 5 C-5 4.01 -5 3.02 -5 2 C-6.32 2 -7.64 2 -9 2 C-9 1.34 -9 0.68 -9 0 C-3.375 -1.125 -3.375 -1.125 0 0 Z " fill="#211D13" transform="translate(513,446)"/>
<path d="M0 0 C-1.32 1.65 -2.64 3.3 -4 5 C-6.64 4.34 -9.28 3.68 -12 3 C-7.86112344 0.24074896 -4.92824278 -0.13689563 0 0 Z " fill="#1C1911" transform="translate(502,759)"/>
<path d="M0 0 C2.8125 0.25 2.8125 0.25 6 1 C8 1.33333333 10 1.66666667 12 2 C12 2.33 12 2.66 12 3 C7.05 3 2.1 3 -3 3 C-2.01 2.01 -1.02 1.02 0 0 Z " fill="#9E9887" transform="translate(409,771)"/>
<path d="M0 0 C-0.33 0.66 -0.66 1.32 -1 2 C-1.99 2.33 -2.98 2.66 -4 3 C-4.4640625 3.928125 -4.4640625 3.928125 -4.9375 4.875 C-6.20298687 7.40597375 -7.67272837 8.44848558 -10 10 C-10.66 9.67 -11.32 9.34 -12 9 C-10.57189185 7.49105554 -9.13218981 5.99307655 -7.6875 4.5 C-6.88699219 3.6646875 -6.08648438 2.829375 -5.26171875 1.96875 C-3 0 -3 0 0 0 Z " fill="#17160D" transform="translate(675,651)"/>
<path d="M0 0 C0.66 0 1.32 0 2 0 C1.84518205 2.70931419 1.51827919 4.46584039 -0.40234375 6.4453125 C-1.89771708 7.67679642 -3.4462924 8.8429837 -5 10 C-4.49890042 5.61537866 -3.01704885 3.1999003 0 0 Z " fill="#A19889" transform="translate(88,155)"/>
<path d="M0 0 C1.65 0 3.3 0 5 0 C6.25664978 2.90600261 7 4.79604584 7 8 C6.34 8 5.68 8 5 8 C5 7.01 5 6.02 5 5 C4.01 5 3.02 5 2 5 C2 4.01 2 3.02 2 2 C1.34 1.34 0.68 0.68 0 0 Z " fill="#231D14" transform="translate(383,422)"/>
<path d="M0 0 C0 0.99 0 1.98 0 3 C-0.495 3.4125 -0.99 3.825 -1.5 4.25 C-3.82742825 6.96533296 -3.19449836 9.56386238 -3 13 C-3.66 13 -4.32 13 -5 13 C-5.28526928 9.62114388 -5.46087248 6.36708009 -5 3 C-2.5 0.875 -2.5 0.875 0 0 Z " fill="#262116" transform="translate(291,381)"/>
<path d="M0 0 C1 3 1 3 0.0625 5.1875 C-0.4634375 6.0846875 -0.4634375 6.0846875 -1 7 C-1.66 7 -2.32 7 -3 7 C-3 7.99 -3 8.98 -3 10 C-3.99 10.33 -4.98 10.66 -6 11 C-4.74194623 6.49197399 -3.09592835 3.5087188 0 0 Z " fill="#242118" transform="translate(257,381)"/>
<path d="M0 0 C0.66 0 1.32 0 2 0 C1.67 1.32 1.34 2.64 1 4 C0.01 4 -0.98 4 -2 4 C-2 4.99 -2 5.98 -2 7 C-3.65 7.33 -5.3 7.66 -7 8 C-6.02133662 6.85373678 -5.04205413 5.70800212 -4.0625 4.5625 C-3.51722656 3.92441406 -2.97195312 3.28632812 -2.41015625 2.62890625 C-1.63204305 1.73008851 -0.84063472 0.84063472 0 0 Z " fill="#978E81" transform="translate(118,121)"/>
<path d="M0 0 C-1.485 2.475 -1.485 2.475 -3 5 C-3.33 4.34 -3.66 3.68 -4 3 C-5.98 3 -7.96 3 -10 3 C-4.375 -1.3125 -4.375 -1.3125 0 0 Z " fill="#9E968A" transform="translate(222,49)"/>
<path d="M0 0 C0 0.66 0 1.32 0 2 C-3.63 3.32 -7.26 4.64 -11 6 C-11.66 5.34 -12.32 4.68 -13 4 C-11.2097939 3.32942113 -9.41778511 2.6636531 -7.625 2 C-6.62726563 1.62875 -5.62953125 1.2575 -4.6015625 0.875 C-2 0 -2 0 0 0 Z " fill="#989182" transform="translate(264,29)"/>
<path d="M0 0 C3.63 1.65 7.26 3.3 11 5 C10.01 5.66 9.02 6.32 8 7 C4.58473446 6.06080198 2.20942714 4.79085534 0 2 C0 1.34 0 0.68 0 0 Z " fill="#A29A8A" transform="translate(560,47)"/>
<path d="M0 0 C-1.98 0.99 -1.98 0.99 -4 2 C-4 2.66 -4 3.32 -4 4 C-5.32 4 -6.64 4 -8 4 C-8 3.34 -8 2.68 -8 2 C-8.66 1.67 -9.32 1.34 -10 1 C-6.52674819 -0.1577506 -3.63932552 -0.06866652 0 0 Z " fill="#9D9887" transform="translate(516,435)"/>
<path d="M0 0 C2.99332739 0.9977758 3.94766315 1.7522025 6 4 C3.69 4.66 1.38 5.32 -1 6 C-1.33 4.35 -1.66 2.7 -2 1 C-1.34 1 -0.68 1 0 1 C0 0.67 0 0.34 0 0 Z " fill="#A69D8D" transform="translate(487,426)"/>
<path d="M0 0 C1.32 0 2.64 0 4 0 C4.33 1.98 4.66 3.96 5 6 C3.68 5.67 2.36 5.34 1 5 C0.67 3.35 0.34 1.7 0 0 Z " fill="#A09A88" transform="translate(62,586)"/>
<path d="M0 0 C0 0.66 0 1.32 0 2 C-4.95 3.485 -4.95 3.485 -10 5 C-10.66 4.34 -11.32 3.68 -12 3 C-10.56445975 2.49440092 -9.1264798 1.9957251 -7.6875 1.5 C-6.88699219 1.2215625 -6.08648437 0.943125 -5.26171875 0.65625 C-3 0 -3 0 0 0 Z " fill="#9A9485" transform="translate(372,505)"/>
<path d="M0 0 C-0.33 0.99 -0.66 1.98 -1 3 C-4.0625 4.1875 -4.0625 4.1875 -7 5 C-7.33 4.01 -7.66 3.02 -8 2 C-4.91190305 0.23537317 -3.76687864 0 0 0 Z " fill="#9E9581" transform="translate(301,402)"/>
<path d="M0 0 C2.91517292 1.07401108 4.77810176 1.77810176 7 4 C5.02 4.66 3.04 5.32 1 6 C0.67 4.02 0.34 2.04 0 0 Z " fill="#282016" transform="translate(343,269)"/>
<path d="M0 0 C0 3 0 3 -1.75 4.82421875 C-2.4925 5.43910156 -3.235 6.05398438 -4 6.6875 C-4.7425 7.31011719 -5.485 7.93273437 -6.25 8.57421875 C-6.8275 9.04472656 -7.405 9.51523437 -8 10 C-8 7 -8 7 -6.25 5.17578125 C-5.5075 4.56089844 -4.765 3.94601562 -4 3.3125 C-3.2575 2.68988281 -2.515 2.06726563 -1.75 1.42578125 C-1.1725 0.95527344 -0.595 0.48476563 0 0 Z " fill="#A9A092" transform="translate(366,407)"/>
<path d="M0 0 C0.33 0.66 0.66 1.32 1 2 C0.34 2 -0.32 2 -1 2 C-1.33 2.99 -1.66 3.98 -2 5 C-4.375 6.25 -4.375 6.25 -7 7 C-7.99 6.67 -8.98 6.34 -10 6 C-6.7 4.02 -3.4 2.04 0 0 Z " fill="#9B9283" transform="translate(198,59)"/>
<path d="M0 0 C0.66 0 1.32 0 2 0 C3.625 2.5 3.625 2.5 5 5 C4.01 5.66 3.02 6.32 2 7 C0.4375 5.1875 0.4375 5.1875 -1 3 C-0.67 2.01 -0.34 1.02 0 0 Z " fill="#9E9581" transform="translate(397,395)"/>
<path d="M0 0 C0.99 0.33 1.98 0.66 3 1 C2.67 1.66 2.34 2.32 2 3 C1.34 3 0.68 3 0 3 C-0.33 4.32 -0.66 5.64 -1 7 C-1.66 5.35 -2.32 3.7 -3 2 C-2.01 1.34 -1.02 0.68 0 0 Z " fill="#A49C8E" transform="translate(470,390)"/>
<path d="M0 0 C0.66 1.32 1.32 2.64 2 4 C0.67172689 6.85578718 -0.14643942 8.57321971 -3 10 C-2.01 6.7 -1.02 3.4 0 0 Z " fill="#948F80" transform="translate(32,254)"/>
<path d="M0 0 C0.33 0.99 0.66 1.98 1 3 C-0.32 4.32 -1.64 5.64 -3 7 C-3.66 5.68 -4.32 4.36 -5 3 C-3.35 2.01 -1.7 1.02 0 0 Z " fill="#A2998B" transform="translate(172,76)"/>
<path d="M0 0 C3.25543229 0.34879632 4.01873107 1.02133261 6.25 3.5625 C6.8275 4.366875 7.405 5.17125 8 6 C7.01 6 6.02 6 5 6 C5 5.34 5 4.68 5 4 C4.01 4 3.02 4 2 4 C2 3.34 2 2.68 2 2 C1.34 2 0.68 2 0 2 C0 1.34 0 0.68 0 0 Z " fill="#17140D" transform="translate(105,649)"/>
<path d="M0 0 C2.2477975 2.05233685 3.0022242 3.00667261 4 6 C3.34 6.66 2.68 7.32 2 8 C1.67 7.01 1.34 6.02 1 5 C0.34 4.67 -0.32 4.34 -1 4 C-0.67 2.68 -0.34 1.36 0 0 Z " fill="#9D9384" transform="translate(459,400)"/>
<path d="M0 0 C0.99 0.33 1.98 0.66 3 1 C2.01 2.485 2.01 2.485 1 4 C-2.625 4.1875 -2.625 4.1875 -6 4 C-4.03617993 2.49440461 -2.21736634 1.10868317 0 0 Z " fill="#989182" transform="translate(490,357)"/>
<path d="M0 0 C0.33 0.99 0.66 1.98 1 3 C-1.97 5.475 -1.97 5.475 -5 8 C-5.66 7.67 -6.32 7.34 -7 7 C-4.69 4.69 -2.38 2.38 0 0 Z " fill="#201D15" transform="translate(438,308)"/>
<path d="M0 0 C1.32 0.66 2.64 1.32 4 2 C3.34 3.65 2.68 5.3 2 7 C0.4375 5.1875 0.4375 5.1875 -1 3 C-0.67 2.01 -0.34 1.02 0 0 Z " fill="#17150E" transform="translate(40,226)"/>
<path d="M0 0 C-0.33 0.66 -0.66 1.32 -1 2 C-2.33076989 2.34342449 -3.66431979 2.67619874 -5 3 C-5.66 3.66 -6.32 4.32 -7 5 C-7.33 4.01 -7.66 3.02 -8 2 C-7.34 2 -6.68 2 -6 2 C-6 1.34 -6 0.68 -6 0 C-3.50907189 -1.24546405 -2.58919267 -0.7767578 0 0 Z " fill="#A9A291" transform="translate(282,25)"/>
<path d="M0 0 C-2.31 1.65 -4.62 3.3 -7 5 C-6.625 2.5625 -6.625 2.5625 -6 0 C-4 -1 -4 -1 0 0 Z " fill="#1A150F" transform="translate(545,744)"/>
<path d="M0 0 C0 0.99 0 1.98 0 3 C-3.375 3.125 -3.375 3.125 -7 3 C-7.66 2.34 -8.32 1.68 -9 1 C-5.8035914 -0.06546953 -3.34252724 -0.07427838 0 0 Z " fill="#211F16" transform="translate(383,493)"/>
<path d="M0 0 C2.64 0.33 5.28 0.66 8 1 C5.42786866 2.61949011 4.32330841 3.04408751 1.25 2.625 C0.5075 2.41875 -0.235 2.2125 -1 2 C-0.67 1.34 -0.34 0.68 0 0 Z " fill="#A9A290" transform="translate(356,483)"/>
<path d="M0 0 C0.99 0.33 1.98 0.66 3 1 C1.68 1.33 0.36 1.66 -1 2 C-0.34 3.32 0.32 4.64 1 6 C0.34 6.66 -0.32 7.32 -1 8 C-1.66 6.02 -2.32 4.04 -3 2 C-2.01 1.34 -1.02 0.68 0 0 Z " fill="#2D281E" transform="translate(473,417)"/>
<path d="M0 0 C-1.75 3.875 -1.75 3.875 -4 5 C-6.125 4.0625 -6.125 4.0625 -8 3 C-2.25 0 -2.25 0 0 0 Z " fill="#999182" transform="translate(503,414)"/>
<path d="M0 0 C1.98 1.65 3.96 3.3 6 5 C4.02 5.99 4.02 5.99 2 7 C1.34 4.69 0.68 2.38 0 0 Z " fill="#A9A494" transform="translate(334,315)"/>
<path d="M0 0 C0.66 0.33 1.32 0.66 2 1 C2.625 4.0625 2.625 4.0625 3 7 C1.02 7.99 1.02 7.99 -1 9 C-1 8.01 -1 7.02 -1 6 C-0.34 6 0.32 6 1 6 C0.67 4.02 0.34 2.04 0 0 Z " fill="#9D9789" transform="translate(354,310)"/>
<path d="M0 0 C0.598125 0.20625 1.19625 0.4125 1.8125 0.625 C1.1525 1.945 0.4925 3.265 -0.1875 4.625 C-1.8375 3.635 -3.4875 2.645 -5.1875 1.625 C-2.1875 -0.375 -2.1875 -0.375 0 0 Z " fill="#1D1910" transform="translate(451.1875,304.375)"/>
<path d="M0 0 C-1.07401108 2.91517292 -1.77810176 4.77810176 -4 7 C-5 4 -5 4 -4 1 C-2 0 -2 0 0 0 Z " fill="#15150E" transform="translate(68,183)"/>
<path d="M0 0 C0.33 0.99 0.66 1.98 1 3 C-0.65 4.32 -2.3 5.64 -4 7 C-4 5.02 -4 3.04 -4 1 C-2.68 1.33 -1.36 1.66 0 2 C0 1.34 0 0.68 0 0 Z " fill="#181610" transform="translate(108,129)"/>
<path d="M0 0 C-1.24546405 3.73639216 -2.63404953 4.18756513 -6 6 C-6 5.34 -6 4.68 -6 4 C-6.66 4 -7.32 4 -8 4 C-6.4425489 0.88509781 -3.40085499 0 0 0 Z " fill="#19160F" transform="translate(166,79)"/>
<path d="M0 0 C2.9375 0.8125 2.9375 0.8125 6 2 C6.33 2.99 6.66 3.98 7 5 C1.25 3.25 1.25 3.25 -1 1 C-0.67 0.67 -0.34 0.34 0 0 Z " fill="#9C9485" transform="translate(230,737)"/>
<path d="M0 0 C1.76462683 3.08809695 2 4.23312136 2 8 C0.68 7.34 -0.64 6.68 -2 6 C-1.34 4.02 -0.68 2.04 0 0 Z " fill="#988F7F" transform="translate(487,464)"/>
<path d="M0 0 C0 0.99 0 1.98 0 3 C-0.99 3.33 -1.98 3.66 -3 4 C-3.33 4.99 -3.66 5.98 -4 7 C-4.66 6.67 -5.32 6.34 -6 6 C-6 5.01 -6 4.02 -6 3 C-4.02 2.01 -2.04 1.02 0 0 Z " fill="#201D15" transform="translate(355,405)"/>
<path d="M0 0 C0.66 0.33 1.32 0.66 2 1 C1.67 2.65 1.34 4.3 1 6 C-1 4.625 -1 4.625 -3 3 C-3 2.34 -3 1.68 -3 1 C-2.01 0.67 -1.02 0.34 0 0 Z " fill="#999183" transform="translate(427,334)"/>
<path d="M0 0 C2 2 2 2 2.125 4.625 C2.08375 5.40875 2.0425 6.1925 2 7 C0.68 6.01 -0.64 5.02 -2 4 C-1.34 2.68 -0.68 1.36 0 0 Z " fill="#9E9481" transform="translate(332,295)"/>
<path d="M0 0 C0.33 0.99 0.66 1.98 1 3 C0.01 3.33 -0.98 3.66 -2 4 C-2 4.66 -2 5.32 -2 6 C-2.66 6 -3.32 6 -4 6 C-4.33 5.01 -4.66 4.02 -5 3 C-3.35 2.01 -1.7 1.02 0 0 Z " fill="#9A9385" transform="translate(182,69)"/>
</svg>
